<svg xmlns="http://www.w3.org/2000/svg" xmlns:xlink="http://www.w3.org/1999/xlink" viewBox="0 0 396 216"><defs><style>.a,.aa,.ah,.ai,.aj,.ak,.an,.ap,.aq,.as,.at,.bj,.e,.f,.h,.o,.r,.t,.u{fill:none;}.b{fill:#d3d3d3;}.c{fill:#fff;}.d{fill:#e8e8e8;}.e{stroke:#316e8e;}.aa,.ah,.ai,.aj,.ak,.an,.ap,.aq,.as,.at,.bj,.e,.f,.h,.o,.r,.t,.u{stroke-miterlimit:10;}.ap,.as,.e,.h,.t{stroke-width:2px;}.f,.h,.o{stroke:#2db27e;}.an,.aq,.f,.r{stroke-dasharray:1 1;}.g,.i,.k,.l,.p{fill:#2db27e;}.al,.i,.k,.w,.x{font-size:5px;}.ac,.af,.al,.i,.l,.w,.y{font-family:Futura-Medium, Futura;font-weight:500;}.j{letter-spacing:-0.08em;}.ab,.ba,.bb,.k,.p,.x{font-family:Futura-Bold, Futura;font-weight:700;}.ab,.ac,.af,.l,.p,.y{font-size:6px;}.m{letter-spacing:-0.01em;}.n{letter-spacing:0.02em;}.q{letter-spacing:-0.04em;}.aa,.r,.t{stroke:#a1cd40;}.ab,.s,.x,.y{fill:#a1cd40;}.u{stroke:#40498a;stroke-dasharray:3;}.ac,.al,.v{fill:#40498a;}.ar,.w{fill:#7ac258;}.z{letter-spacing:0.01em;}.ad{letter-spacing:-0.03em;}.ae{letter-spacing:-0.02em;}.ag{letter-spacing:-0.02em;}.ah,.ai,.aj,.ak,.at,.bj{stroke:#000;}.ai{stroke-dasharray:3.02 3.02;}.aj{stroke-dasharray:3.08 3.08;}.ak{stroke-width:3px;}.am{letter-spacing:0.01em;}.an,.ap{stroke:#20908c;}.ao{fill:#20908c;}.aq,.as{stroke:#7ac258;}.at{stroke-width:0px;opacity:0;}.au{clip-path:url(#a);}.av{clip-path:url(#b);}.aw{clip-path:url(#c);}.ax{letter-spacing:-0.03em;}.ay{letter-spacing:0.02em;}.az{letter-spacing:-0.02em;}.ba,.bb{fill:#2cb27e;}.bb{letter-spacing:0.01em;}.bc{font-size:12px;fill:#231f20;font-family:Wingdings-Regular, Wingdings;}.bd{clip-path:url(#d);}.be{clip-path:url(#e);}.bf{clip-path:url(#f);}.bg{letter-spacing:-0.02em;}.bh{clip-path:url(#g);}.bi{clip-path:url(#h);}.bj{stroke-width:0.5px;}.bk{letter-spacing:0.01em;}.bl{letter-spacing:-0.01em;}.bm{clip-path:url(#i);}.bn{clip-path:url(#j);}</style><clipPath id="a"><rect class="a" x="350.32" y="73.12" width="6.48" height="4.26"/></clipPath><clipPath id="b"><rect class="a" x="351.4" y="132.35" width="4.69" height="3.62"/></clipPath><clipPath id="c"><rect class="a" x="349.21" y="156.34" width="15.17" height="4.83"/></clipPath><clipPath id="d"><rect class="a" x="226.38" y="192.05" width="4.59" height="3.55"/></clipPath><clipPath id="e"><rect class="a" x="268.47" y="18.73" width="4.59" height="3.55"/></clipPath><clipPath id="f"><rect class="a" x="350.25" y="85.49" width="20" height="6.46"/></clipPath><clipPath id="g"><rect class="a" x="37.93" y="99.48" width="6.96" height="5.02"/></clipPath><clipPath id="h"><rect class="a" x="172.77" y="73.34" width="6.96" height="5.02"/></clipPath><clipPath id="i"><rect class="a" x="92.89" y="53.13" width="6.78" height="5.04"/></clipPath><clipPath id="j"><rect class="a" x="16.72" y="99.81" width="6.78" height="5.04"/></clipPath></defs><title>Neurips-long7</title><rect class="b" x="2.97" y="3.51" width="390.06" height="209.71" rx="22.42"/><path d="M370.61,4a21.94,21.94,0,0,1,21.92,21.92V190.79a21.94,21.94,0,0,1-21.92,21.92H25.39A21.94,21.94,0,0,1,3.47,190.79V25.93A21.94,21.94,0,0,1,25.39,4H370.61m0-1H25.39A23,23,0,0,0,2.47,25.93V190.79a23,23,0,0,0,22.92,22.92H370.61a23,23,0,0,0,22.92-22.92V25.93A23,23,0,0,0,370.61,3Z"/><rect class="c" x="6.15" y="6.89" width="382.82" height="203.69" rx="20.3"/><rect class="d" x="57.42" y="45.07" width="144.58" height="95.31" rx="9.85"/><line class="e" x1="165.32" y1="62.02" x2="174.76" y2="95.55"/><line class="e" x1="165.32" y1="49.43" x2="165.32" y2="63.77"/><line class="f" x1="88.85" y1="62.02" x2="70.84" y2="129.61"/><path class="g" d="M69.28,135.45A30,30,0,0,0,66.89,126L71,128.85l5-.44A30.18,30.18,0,0,0,69.28,135.45Z"/><line class="h" x1="88.85" y1="62.02" x2="107.65" y2="129.63"/><path class="g" d="M109.27,135.45a30.08,30.08,0,0,0-6.87-7l5,.38,4.12-2.93A30.05,30.05,0,0,0,109.27,135.45Z"/><line class="f" x1="88.85" y1="62.02" x2="88.85" y2="129.41"/><path class="g" d="M88.85,135.45a30.45,30.45,0,0,0-4.76-8.55l4.76,1.72,4.75-1.72A30.18,30.18,0,0,0,88.85,135.45Z"/><line class="e" x1="88.85" y1="49.43" x2="88.85" y2="63.77"/><text class="i" transform="translate(66.28 150.53)">0.3</text><text class="i" transform="translate(85.9 150.53)">0<tspan class="j" x="3.09" y="0">.</tspan><tspan x="4.23" y="0">1</tspan></text><text class="k" transform="translate(105.02 150.53)">0.5</text><text class="l" transform="translate(63.85 176.33)">Base p<tspan class="m" x="18.35" y="0">r</tspan><tspan x="20.55" y="0">e</tspan><tspan class="n" x="23.87" y="0">f</tspan><tspan x="25.78" y="0">ix z-sco</tspan><tspan class="m" x="45.94" y="0">r</tspan><tspan x="48.14" y="0">e</tspan></text><line class="o" x1="65.58" y1="159.94" x2="113.53" y2="159.94"/><line class="o" x1="66.03" y1="160.4" x2="66.03" y2="156.91"/><line class="o" x1="113.07" y1="160.38" x2="113.07" y2="156.9"/><line class="o" x1="89.58" y1="163.1" x2="89.58" y2="159.61"/><text class="p" transform="translate(84.59 169.33)"><tspan class="q">1</tspan><tspan x="3.82" y="0">.0</tspan></text><line class="r" x1="174.55" y1="94.3" x2="192.3" y2="130.16"/><path class="s" d="M195,135.57a30,30,0,0,0-8.05-5.55l5-.57,3.49-3.65A30.6,30.6,0,0,0,195,135.57Z"/><line class="r" x1="174.55" y1="94.3" x2="157.57" y2="130.12"/><path class="s" d="M155,135.57a30.2,30.2,0,0,0-.64-9.76l3.56,3.59,5,.48A30.36,30.36,0,0,0,155,135.57Z"/><line class="t" x1="174.55" y1="94.3" x2="174.55" y2="129.54"/><path class="s" d="M174.55,135.57a30.1,30.1,0,0,0-4.76-8.55l4.76,1.73L179.3,127A30.31,30.31,0,0,0,174.55,135.57Z"/><line class="u" x1="100.36" y1="95.11" x2="172.85" y2="95.11"/><circle class="v" cx="174.55" cy="95.11" r="1.7"/><circle class="v" cx="97.98" cy="95.11" r="1.7"/><text class="w" transform="translate(151.13 150.53)">0.2</text><text class="x" transform="translate(170.15 150.53)">0.6</text><text class="w" transform="translate(190.26 150.53)">0.5</text><circle class="v" cx="88.79" cy="63.02" r="1.7"/><text class="y" transform="translate(141.88 175.99)">Candida<tspan class="z" x="23.38" y="0">t</tspan><tspan x="25.07" y="0">e p</tspan><tspan class="m" x="33.84" y="0">r</tspan><tspan x="36.04" y="0">e</tspan><tspan class="n" x="39.36" y="0">f</tspan><tspan x="41.27" y="0">ix z-sco</tspan><tspan class="m" x="61.43" y="0">r</tspan><tspan x="63.64" y="0">e</tspan></text><line class="aa" x1="151.35" y1="159.31" x2="199.31" y2="159.31"/><line class="aa" x1="151.81" y1="159.77" x2="151.81" y2="156.29"/><line class="aa" x1="198.84" y1="159.75" x2="198.84" y2="156.27"/><line class="aa" x1="175.36" y1="162.47" x2="175.36" y2="158.99"/><text class="ab" transform="translate(170.23 169.33)">0.8</text><text class="ac" transform="translate(111.44 90.64)"><tspan class="ad">P</tspan><tspan x="3.07" y="0">oints a</tspan><tspan class="m" x="20.98" y="0">r</tspan><tspan x="23.19" y="0">e p</tspan><tspan class="m" x="31.95" y="0">r</tspan><tspan x="34.16" y="0">e</tspan><tspan class="n" x="37.48" y="0">f</tspan><tspan x="39.38" y="0">i</tspan><tspan class="ae" x="40.88" y="0">x</tspan><tspan x="44.13" y="0">es</tspan></text><circle class="v" cx="165.42" cy="63.02" r="1.7"/><text class="ac" transform="translate(158.22 64.55)">A</text><text class="ac" transform="translate(81.81 64.75)">A</text><text class="ac" transform="translate(177.57 93.72)">B</text><text class="ac" transform="translate(99.99 92.46)">B</text><text class="af" transform="translate(34.54 150.7)"><tspan class="ae">R</tspan><tspan class="ag" x="3.52" y="0">e</tspan><tspan class="ae" x="6.74" y="0">w</tspan><tspan x="11.29" y="0">a</tspan><tspan class="m" x="14.89" y="0">r</tspan><tspan x="17.09" y="0">d</tspan></text><polyline class="ah" points="201.08 153.05 201.08 154.55 199.58 154.55"/><line class="ai" x1="196.56" y1="154.55" x2="65.07" y2="154.55"/><polyline class="ah" points="63.55 154.55 62.05 154.55 62.05 153.05"/><line class="aj" x1="62.05" y1="149.96" x2="62.05" y2="145.34"/><polyline class="ah" points="62.05 143.8 62.05 142.3 63.55 142.3"/><line class="ai" x1="66.58" y1="142.3" x2="198.07" y2="142.3"/><polyline class="ah" points="199.58 142.3 201.08 142.3 201.08 143.8"/><line class="aj" x1="201.08" y1="146.88" x2="201.08" y2="151.51"/><text class="af" transform="translate(81.26 41.41)">Base</text><text class="af" transform="translate(151.17 41.66)">Candida<tspan class="z" x="23.38" y="0">t</tspan><tspan x="25.07" y="0">e</tspan></text><text class="i" transform="translate(101 98.41) rotate(73.89)">Best solution</text><line class="ak" x1="211.82" y1="86.54" x2="232.22" y2="66.14"/><polygon points="233.72 68.87 235.27 63.09 229.49 64.64 233.72 68.87"/><rect class="d" x="242.25" y="34.27" width="129.94" height="66.74" rx="9.85"/><line class="e" x1="259.8" y1="46.14" x2="266.41" y2="69.62"/><line class="e" x1="259.8" y1="37.32" x2="259.8" y2="47.37"/><line class="r" x1="266.26" y1="68.74" x2="277.89" y2="92.23"/><path class="s" d="M280.56,97.64a30.11,30.11,0,0,0-8.05-5.55l5-.57,3.5-3.65A30.6,30.6,0,0,0,280.56,97.64Z"/><line class="r" x1="266.26" y1="68.74" x2="255.15" y2="92.19"/><path class="s" d="M252.57,97.64a30.48,30.48,0,0,0-.64-9.76l3.56,3.59,5,.48A30.09,30.09,0,0,0,252.57,97.64Z"/><line class="t" x1="266.26" y1="68.74" x2="266.26" y2="91.6"/><path class="s" d="M266.26,97.64a30.31,30.31,0,0,0-4.75-8.55l4.75,1.72L271,89.09A30.1,30.1,0,0,0,266.26,97.64Z"/><circle class="v" cx="266.26" cy="69.31" r="1.19"/><circle class="v" cx="259.87" cy="46.84" r="1.19"/><text class="al" transform="translate(253.62 48.03)">A</text><text class="al" transform="translate(268.14 68.34)">B</text><text class="af" transform="translate(251.58 31.71)"><tspan class="am">N</tspan><tspan class="ag" x="5.13" y="0">e</tspan><tspan x="8.36" y="0">w base</tspan></text><text class="af" transform="translate(307.89 31.89)"><tspan class="am">N</tspan><tspan class="ag" x="5.13" y="0">e</tspan><tspan x="8.36" y="0">w candida</tspan><tspan class="z" x="36.89" y="0">t</tspan><tspan x="38.58" y="0">e</tspan></text><rect class="d" x="242.25" y="116.37" width="129.94" height="66.74" rx="9.85"/><line class="f" x1="264.25" y1="128.23" x2="252.11" y2="173.81"/><path class="g" d="M250.56,179.65a30.25,30.25,0,0,0-2.4-9.49l4.15,2.89,5-.44A29.94,29.94,0,0,0,250.56,179.65Z"/><line class="h" x1="264.25" y1="128.23" x2="276.94" y2="173.83"/><path class="g" d="M278.55,179.65a29.89,29.89,0,0,0-6.87-7l5,.38,4.12-2.93A30.33,30.33,0,0,0,278.55,179.65Z"/><line class="f" x1="264.25" y1="128.23" x2="264.25" y2="173.61"/><path class="g" d="M264.25,179.65a30.18,30.18,0,0,0-4.75-8.55l4.75,1.72L269,171.1A30,30,0,0,0,264.25,179.65Z"/><line class="e" x1="264.25" y1="119.42" x2="264.25" y2="129.46"/><circle class="v" cx="270.65" cy="151.4" r="1.19"/><circle class="v" cx="264.21" cy="128.93" r="1.19"/><text class="al" transform="translate(259.03 130.14)">A</text><text class="al" transform="translate(271.82 149.54)">B</text><text class="af" transform="translate(251.58 113.8)"><tspan class="am">N</tspan><tspan class="ag" x="5.13" y="0">e</tspan><tspan x="8.36" y="0">w base</tspan></text><text class="af" transform="translate(307.89 113.98)"><tspan class="am">N</tspan><tspan class="ag" x="5.13" y="0">e</tspan><tspan x="8.36" y="0">w candida</tspan><tspan class="z" x="36.89" y="0">t</tspan><tspan x="38.58" y="0">e</tspan></text><line class="e" x1="312.92" y1="46.14" x2="319.54" y2="69.62"/><line class="e" x1="312.92" y1="37.32" x2="312.92" y2="47.37"/><line class="e" x1="319.37" y1="69.15" x2="319.41" y2="81.16"/><line class="an" x1="319.39" y1="80.43" x2="329.83" y2="93"/><path class="ao" d="M333.69,97.64a30.21,30.21,0,0,0-9.12-3.53l4.76-1.72L331.88,88A30.07,30.07,0,0,0,333.69,97.64Z"/><line class="ap" x1="319.39" y1="80.43" x2="309.45" y2="92.92"/><path class="ao" d="M305.69,97.64A30.38,30.38,0,0,0,307.3,88l2.64,4.31,4.8,1.61A30.31,30.31,0,0,0,305.69,97.64Z"/><line class="an" x1="319.39" y1="81.26" x2="319.39" y2="91.6"/><path class="ao" d="M319.39,97.64a30.1,30.1,0,0,0-4.76-8.55l4.76,1.72,4.75-1.72A30.31,30.31,0,0,0,319.39,97.64Z"/><circle class="v" cx="319.39" cy="69.31" r="1.19"/><circle class="v" cx="312.99" cy="46.84" r="1.19"/><text class="al" transform="translate(307.66 47.91)">A</text><text class="al" transform="translate(321.27 68.34)">B</text><circle class="v" cx="266.32" cy="80.71" r="1.19"/><text class="al" transform="translate(261.44 79.54)">D</text><circle class="v" cx="319.33" cy="80.71" r="1.19"/><text class="al" transform="translate(321.8 79.03)">D</text><line class="ah" x1="276.76" y1="56.6" x2="266.32" y2="57.88"/><text class="af" transform="translate(279.98 57.88)">commit</text><line class="aq" x1="309.64" y1="139.25" x2="319.52" y2="173.2"/><path class="ar" d="M321.21,179a30.07,30.07,0,0,0-7-6.88l5.05.32,4.08-3A30.25,30.25,0,0,0,321.21,179Z"/><line class="aq" x1="309.64" y1="139.25" x2="300.17" y2="173.18"/><path class="ar" d="M298.55,179a30,30,0,0,0-2.28-9.51l4.12,2.93,5-.38A30.12,30.12,0,0,0,298.55,179Z"/><line class="as" x1="309.64" y1="139.25" x2="309.64" y2="172.96"/><path class="ar" d="M309.64,179a30.45,30.45,0,0,0-4.76-8.55l4.76,1.72,4.75-1.72A30.18,30.18,0,0,0,309.64,179Z"/><line class="e" x1="306.53" y1="128.4" x2="309.76" y2="139.36"/><line class="e" x1="306.53" y1="119.58" x2="306.53" y2="129.63"/><circle class="v" cx="306.6" cy="129.1" r="1.19"/><text class="al" transform="translate(301.26 130.17)">A</text><text class="al" transform="translate(314.87 150.6)">B</text><circle class="v" cx="313.18" cy="151.57" r="1.19"/><circle class="v" cx="309.65" cy="139.34" r="1.19"/><text class="al" transform="translate(311.45 140.13)">C</text><circle class="v" cx="267.44" cy="139.34" r="1.19"/><text class="al" transform="translate(268.53 137.27)">C</text><line class="ah" x1="302.05" y1="149.19" x2="302.05" y2="145"/><polygon points="304.54 145.73 302.05 141.41 299.56 145.73 304.54 145.73"/><text class="af" transform="translate(280.59 146.9)"><tspan class="m">r</tspan><tspan x="2.2" y="0">e</tspan><tspan class="n" x="5.52" y="0">f</tspan><tspan x="7.43" y="0">ine</tspan></text><polygon class="at" points="360.25 77.02 360.25 77.02 360.25 77.02 360.25 77.02 360.25 77.02 360.25 77.02 360.25 77.02 360.25 77.02 360.25 77.02 360.25 77.02 360.25 77.02 360.25 77.02 360.25 77.02 360.25 77.02 360.25 77.02 360.25 77.02 360.25 77.02 360.25 77.02 360.25 77.02 360.25 77.02 360.25 77.02 360.25 77.02 360.25 77.02 360.25 77.02 360.25 77.02 360.25 77.02 360.25 77.02 360.25 77.02 360.25 77.02 360.25 77.02 360.25 77.02 360.25 77.02 360.25 77.02 360.25 77.02 360.25 77.02 360.25 77.02 360.25 77.02 360.25 77.02 360.25 77.02 360.25 77.02 360.25 77.02 360.25 77.02 360.25 77.02 360.25 77.02 360.25 77.02 360.25 77.02 360.25 77.02 360.25 77.02 360.25 77.02 360.25 77.02 360.25 77.02 360.25 77.02 360.25 77.02 360.25 77.02 360.25 77.02 360.25 77.02 360.25 77.02 360.25 77.02 360.25 77.02 360.25 77.02 360.25 77.02 360.25 77.02 360.25 77.02 360.25 77.02 360.25 77.02 360.25 77.02 360.25 77.02 360.25 77.02 360.25 77.02 360.25 77.02 360.25 77.02 360.25 77.02 360.25 77.02 360.25 77.02 360.25 77.02 360.25 77.02 360.25 77.02 360.25 77.02 360.25 77.02 360.25 77.02 360.25 77.02 360.25 77.02 360.25 77.02 360.25 77.02 360.25 77.02 360.25 77.02 360.25 77.02"/><polygon class="at" points="208.72 122.9 208.72 122.9 208.72 122.9 208.72 122.9 208.72 122.9 208.72 122.9 208.72 122.9 208.72 122.9 208.72 122.9 208.72 122.9 208.72 122.9 208.72 122.9 208.72 122.9 208.72 122.9 208.72 122.9 208.72 122.9 208.72 122.9 208.72 122.9 208.72 122.9 208.72 122.9 208.72 122.9 208.72 122.9 208.72 122.9 208.72 122.9 208.72 122.9 208.72 122.9 208.72 122.9 208.72 122.9 208.72 122.9 208.72 122.9 208.72 122.9 208.72 122.9 208.72 122.9 208.72 122.9 208.72 122.9 208.72 122.9 208.72 122.9 208.72 122.9 208.72 122.9 208.72 122.9 208.72 122.9 208.72 122.9 208.72 122.9 208.72 122.9 208.72 122.9 208.72 122.9 208.72 122.9 208.72 122.9 208.72 122.9 208.72 122.9 208.72 122.9 208.72 122.9 208.72 122.9 208.72 122.9 208.72 122.9 208.72 122.9 208.72 122.9 208.72 122.9 208.72 122.9 208.72 122.9 208.72 122.9 208.72 122.9 208.72 122.9 208.72 122.9 208.72 122.9 208.72 122.9 208.72 122.9 208.72 122.9 208.72 122.9 208.72 122.9 208.72 122.9 208.72 122.9 208.72 122.9 208.72 122.9 208.72 122.9 208.72 122.9 208.72 122.9 208.72 122.9 208.72 122.9 208.72 122.9 208.72 122.9 208.72 122.9 208.72 122.9 208.72 122.9 208.72 122.9 208.72 122.9 208.72 122.9 208.72 122.9 208.72 122.9 208.72 122.9 208.72 122.9"/><polygon class="at" points="310.39 127.15 310.39 127.15 310.39 127.15 310.39 127.15 310.39 127.15 310.39 127.15 310.39 127.15 310.39 127.15 310.39 127.15 310.39 127.15 310.39 127.15 310.39 127.15 310.39 127.15 310.39 127.15 310.39 127.15 310.39 127.15 310.39 127.15 310.39 127.15 310.39 127.15 310.39 127.15 310.39 127.15 310.39 127.15 310.39 127.15 310.39 127.15 310.39 127.15 310.39 127.15 310.39 127.15 310.39 127.15 310.39 127.15 310.39 127.15 310.39 127.15 310.39 127.15 310.39 127.15 310.39 127.15 310.39 127.15 310.39 127.15 310.39 127.15 310.39 127.15 310.39 127.15 310.39 127.15 310.39 127.15 310.39 127.15 310.39 127.15 310.39 127.15 310.39 127.15 310.39 127.15 310.39 127.15 310.39 127.15 310.39 127.15 310.39 127.15 310.39 127.15 310.39 127.15 310.39 127.15 310.39 127.15 310.39 127.15 310.39 127.15 310.39 127.15 310.39 127.15 310.39 127.15 310.39 127.15 310.39 127.15 310.39 127.15 310.39 127.15 310.39 127.15 310.39 127.15 310.39 127.15 310.39 127.15 310.39 127.15 310.39 127.15 310.39 127.15 310.39 127.15 310.39 127.15 310.39 127.15 310.39 127.15 310.39 127.15 310.39 127.15 310.39 127.15 310.39 127.15 310.39 127.15 310.39 127.15 310.39 127.15 310.39 127.15 310.39 127.15 310.39 127.15 310.39 127.15 310.39 127.15 310.39 127.15 310.39 127.15 310.39 127.15 310.39 127.15 310.39 127.15 310.39 127.15"/><polygon class="at" points="378.18 63.82 378.18 63.82 378.18 63.82 378.18 63.82 378.18 63.82 378.18 63.82 378.18 63.82 378.18 63.82 378.18 63.82 378.18 63.82 378.18 63.82 378.18 63.82 378.18 63.82 378.18 63.82 378.18 63.82 378.18 63.82 378.18 63.82 378.18 63.82 378.18 63.82 378.18 63.82 378.18 63.82 378.18 63.82 378.18 63.82 378.18 63.82 378.18 63.82 378.18 63.82 378.18 63.82 378.18 63.82 378.18 63.82 378.18 63.82 378.18 63.82 378.18 63.82 378.18 63.82 378.18 63.82 378.18 63.82 378.18 63.82 378.18 63.82 378.18 63.82 378.18 63.82 378.18 63.82 378.18 63.82 378.18 63.82 378.18 63.82 378.18 63.82 378.18 63.82 378.18 63.82 378.18 63.82 378.18 63.82 378.18 63.82 378.18 63.82 378.18 63.82 378.18 63.82 378.18 63.82 378.18 63.82 378.18 63.82 378.18 63.82 378.18 63.82 378.18 63.82 378.18 63.82 378.18 63.82 378.18 63.82 378.18 63.82 378.18 63.82 378.18 63.82 378.18 63.82 378.18 63.82 378.18 63.82 378.18 63.82 378.18 63.82 378.18 63.82 378.18 63.82 378.18 63.82 378.18 63.82 378.18 63.82 378.18 63.82 378.18 63.82 378.18 63.82 378.18 63.82 378.18 63.82 378.18 63.82 378.18 63.82 378.18 63.82 378.18 63.82 378.18 63.82 378.18 63.82 378.18 63.82 378.18 63.82 378.18 63.82 378.18 63.82 378.18 63.82 378.18 63.82 378.18 63.82"/><polygon class="at" points="327.58 91.66 327.58 91.66 327.58 91.66 327.58 91.66 327.58 91.66 327.58 91.66 327.58 91.66 327.58 91.66 327.58 91.66 327.58 91.66 327.58 91.66 327.58 91.66 327.58 91.66 327.58 91.66 327.58 91.66 327.58 91.66 327.58 91.66 327.58 91.66 327.58 91.66 327.58 91.66 327.58 91.66 327.58 91.66 327.58 91.66 327.58 91.66 327.58 91.66 327.58 91.66 327.58 91.66 327.58 91.66 327.58 91.66 327.58 91.66 327.58 91.66 327.58 91.66 327.58 91.66 327.58 91.66 327.58 91.66 327.58 91.66 327.58 91.66 327.58 91.66 327.58 91.66 327.58 91.66 327.58 91.66 327.58 91.66 327.58 91.66 327.58 91.66 327.58 91.66 327.58 91.66 327.58 91.66 327.58 91.66 327.58 91.66 327.58 91.66 327.58 91.66 327.58 91.66 327.58 91.66 327.58 91.66 327.58 91.66 327.58 91.66 327.58 91.66 327.58 91.66 327.58 91.66 327.58 91.66 327.58 91.66 327.58 91.66 327.58 91.66 327.58 91.66 327.58 91.66 327.58 91.66 327.58 91.66 327.58 91.66 327.58 91.66 327.58 91.66 327.58 91.66 327.58 91.66 327.58 91.66 327.58 91.66 327.58 91.66 327.58 91.66 327.58 91.66 327.58 91.66 327.58 91.66 327.58 91.66 327.58 91.66 327.58 91.66 327.58 91.66 327.58 91.66 327.58 91.66 327.58 91.66 327.58 91.66 327.58 91.66 327.58 91.66 327.58 91.66"/><polygon class="at" points="180.65 75.51 180.65 75.51 180.65 75.51 180.65 75.51 180.65 75.51 180.65 75.51 180.65 75.51 180.65 75.51 180.65 75.51 180.65 75.51 180.65 75.51 180.65 75.51 180.65 75.51 180.65 75.51 180.65 75.51 180.65 75.51 180.65 75.51 180.65 75.51 180.65 75.51 180.65 75.51 180.65 75.51 180.65 75.51 180.65 75.51 180.65 75.51 180.65 75.51 180.65 75.51 180.65 75.51 180.65 75.51 180.65 75.51 180.65 75.51 180.65 75.51 180.65 75.51 180.65 75.51 180.65 75.51 180.65 75.51 180.65 75.51 180.65 75.51 180.65 75.51 180.65 75.51 180.65 75.51 180.65 75.51 180.65 75.51 180.65 75.51 180.65 75.51 180.65 75.51 180.65 75.51 180.65 75.51 180.65 75.51 180.65 75.51 180.65 75.51 180.65 75.51 180.65 75.51 180.65 75.51 180.65 75.51 180.65 75.51 180.65 75.51 180.65 75.51 180.65 75.51 180.65 75.51 180.65 75.51 180.65 75.51 180.65 75.51 180.65 75.51 180.65 75.51 180.65 75.51 180.65 75.51 180.65 75.51 180.65 75.51 180.65 75.51 180.65 75.51 180.65 75.51 180.65 75.51 180.65 75.51 180.65 75.51 180.65 75.51 180.65 75.51 180.65 75.51 180.65 75.51 180.65 75.51 180.65 75.51 180.65 75.51 180.65 75.51 180.65 75.51 180.65 75.51 180.65 75.51 180.65 75.51 180.65 75.51 180.65 75.51"/><polygon class="at" points="170.28 55.46 170.28 55.46 170.28 55.46 170.28 55.46 170.28 55.46 170.28 55.46 170.28 55.46 170.28 55.46 170.28 55.46 170.28 55.46 170.28 55.46 170.28 55.46 170.28 55.46 170.28 55.46 170.28 55.46 170.28 55.46 170.28 55.46 170.28 55.46 170.28 55.46 170.28 55.46 170.28 55.46 170.28 55.46 170.28 55.46 170.28 55.46 170.28 55.46 170.28 55.46 170.28 55.46 170.28 55.46 170.28 55.46 170.28 55.46 170.28 55.46 170.28 55.46 170.28 55.46 170.28 55.46 170.28 55.46 170.28 55.46 170.28 55.46 170.28 55.46 170.28 55.46 170.28 55.46 170.28 55.46 170.28 55.46 170.28 55.46 170.28 55.46 170.28 55.46 170.28 55.46 170.28 55.46 170.28 55.46 170.28 55.46 170.28 55.46 170.28 55.46 170.28 55.46 170.28 55.46 170.28 55.46 170.28 55.46 170.28 55.46 170.28 55.46 170.28 55.46 170.28 55.46 170.28 55.46 170.28 55.46 170.28 55.46 170.28 55.46 170.28 55.46 170.28 55.46 170.28 55.46 170.28 55.46 170.28 55.46 170.28 55.46 170.28 55.46 170.28 55.46 170.28 55.46 170.28 55.46 170.28 55.46 170.28 55.46 170.28 55.46 170.28 55.46 170.28 55.46 170.28 55.46 170.28 55.46 170.28 55.46 170.28 55.46 170.28 55.46 170.28 55.46 170.28 55.46 170.28 55.46 170.28 55.46"/><polygon class="at" points="333.97 69.97 333.97 69.97 333.97 69.97 333.97 69.97 333.97 69.97 333.97 69.97 333.97 69.97 333.97 69.97 333.97 69.97 333.97 69.97 333.97 69.97 333.97 69.97 333.97 69.97 333.97 69.97 333.97 69.97 333.97 69.97 333.97 69.97 333.97 69.97 333.97 69.97 333.97 69.97 333.97 69.97 333.97 69.97 333.97 69.97 333.97 69.97 333.97 69.97 333.97 69.97 333.97 69.97 333.97 69.97 333.97 69.97 333.97 69.97 333.97 69.97 333.97 69.97 333.97 69.97 333.97 69.97 333.97 69.97 333.97 69.97 333.97 69.97 333.97 69.97 333.97 69.97 333.97 69.97 333.97 69.97 333.97 69.97 333.97 69.97 333.97 69.97 333.97 69.97 333.97 69.97 333.97 69.97 333.97 69.97 333.97 69.97 333.97 69.97 333.97 69.97 333.97 69.97 333.97 69.97 333.97 69.97 333.97 69.97 333.97 69.97 333.97 69.97 333.97 69.97 333.97 69.97 333.97 69.97 333.97 69.97 333.97 69.97 333.97 69.97 333.97 69.97 333.97 69.97 333.97 69.97 333.97 69.97 333.97 69.97 333.97 69.97 333.97 69.97 333.97 69.97 333.97 69.97 333.97 69.97 333.97 69.97 333.97 69.97 333.97 69.97 333.97 69.97 333.97 69.97 333.97 69.97 333.97 69.97 333.97 69.97 333.97 69.97 333.97 69.97 333.97 69.97 333.97 69.97 333.97 69.97 333.97 69.97"/><g class="au"><path d="M352.81,75.49a2.11,2.11,0,0,1-1.37.59c-.39,0-.59-.3-.59-.73a3.5,3.5,0,0,1,.38-1.38,1.13,1.13,0,0,1,.91-.61c.65,0,.65.87.65,1.39,0,.24,0,.63,0,.74m.44-.91c0-1-.62-1.37-1.11-1.37a2,2,0,0,0-1.79,1.89,1,1,0,0,0,1.08,1.12,2.24,2.24,0,0,0,1.4-.55.63.63,0,0,0,.61.55.61.61,0,0,0,.56-.47s0-.06-.08-.06a.09.09,0,0,0-.09.06c-.12.33-.36.33-.37.33-.21,0-.21-.52-.21-.68s0-.15.07-.23a4,4,0,0,0,.76-1.56s0-.07-.08-.07-.06,0-.1.14a3.92,3.92,0,0,1-.65,1.31Z"/><path d="M355.64,77.11a.6.6,0,0,1-.59-.5,4.53,4.53,0,0,1-.07-1,4,4,0,0,1,.07-1,.6.6,0,0,1,.59-.46.58.58,0,0,1,.57.42,4,4,0,0,1,.08,1,5.11,5.11,0,0,1-.06,1,.6.6,0,0,1-.59.52m1.07-1.44a2.08,2.08,0,0,0-.27-1.2,1,1,0,0,0-.8-.4c-1.08,0-1.08,1.27-1.08,1.6s0,1.57,1.08,1.57S356.71,76,356.71,75.67Z"/></g><polygon class="at" points="315.05 116.48 315.05 116.48 315.05 116.48 315.05 116.48 315.05 116.48 315.05 116.48 315.05 116.48 315.05 116.48 315.05 116.48 315.05 116.48 315.05 116.48 315.05 116.48 315.05 116.48 315.05 116.48 315.05 116.48 315.05 116.48 315.05 116.48 315.05 116.48 315.05 116.48 315.05 116.48 315.05 116.48 315.05 116.48 315.05 116.48 315.05 116.48 315.05 116.48 315.05 116.48 315.05 116.48 315.05 116.48 315.05 116.48 315.05 116.48 315.05 116.48 315.05 116.48 315.05 116.48 315.05 116.48 315.05 116.48 315.05 116.48 315.05 116.48 315.05 116.48 315.05 116.48 315.05 116.48 315.05 116.48 315.05 116.48 315.05 116.48 315.05 116.48 315.05 116.48 315.05 116.48 315.05 116.48 315.05 116.48 315.05 116.48 315.05 116.48 315.05 116.48 315.05 116.48 315.05 116.48 315.05 116.48 315.05 116.48 315.05 116.48 315.05 116.48 315.05 116.48 315.05 116.48 315.05 116.48 315.05 116.48 315.05 116.48 315.05 116.48 315.05 116.48 315.05 116.48 315.05 116.48 315.05 116.48 315.05 116.48 315.05 116.48 315.05 116.48 315.05 116.48 315.05 116.48 315.05 116.48 315.05 116.48 315.05 116.48 315.05 116.48 315.05 116.48 315.05 116.48 315.05 116.48 315.05 116.48 315.05 116.48 315.05 116.48 315.05 116.48 315.05 116.48 315.05 116.48 315.05 116.48 315.05 116.48"/><g class="av"><path d="M354.43,135.08a2.36,2.36,0,0,1-1.57.67c-.45,0-.68-.34-.68-.83a4.05,4.05,0,0,1,.44-1.59,1.28,1.28,0,0,1,1-.7c.76,0,.76,1,.76,1.6,0,.28,0,.72,0,.85M355,134c0-1.2-.72-1.57-1.28-1.57a2.26,2.26,0,0,0-2.06,2.17,1.21,1.21,0,0,0,1.24,1.29,2.55,2.55,0,0,0,1.61-.64.73.73,0,0,0,.7.64.7.7,0,0,0,.64-.54.08.08,0,0,0-.09-.08.11.11,0,0,0-.1.08c-.14.37-.41.37-.43.37-.23,0-.23-.59-.23-.78s0-.17.07-.26a4.44,4.44,0,0,0,.88-1.8.08.08,0,0,0-.09-.08c-.08,0-.08,0-.12.16a4.46,4.46,0,0,1-.74,1.52Z"/></g><polygon class="at" points="294.6 129.49 294.6 129.49 294.6 129.49 294.6 129.49 294.6 129.49 294.6 129.49 294.6 129.49 294.6 129.49 294.6 129.49 294.6 129.49 294.6 129.49 294.6 129.49 294.6 129.49 294.6 129.49 294.6 129.49 294.6 129.49 294.6 129.49 294.6 129.49 294.6 129.49 294.6 129.49 294.6 129.49 294.6 129.49 294.6 129.49 294.6 129.49 294.6 129.49 294.6 129.49 294.6 129.49 294.6 129.49 294.6 129.49 294.6 129.49 294.6 129.49 294.6 129.49 294.6 129.49 294.6 129.49 294.6 129.49 294.6 129.49 294.6 129.49 294.6 129.49 294.6 129.49 294.6 129.49 294.6 129.49 294.6 129.49 294.6 129.49 294.6 129.49 294.6 129.49 294.6 129.49 294.6 129.49 294.6 129.49 294.6 129.49 294.6 129.49 294.6 129.49 294.6 129.49 294.6 129.49 294.6 129.49 294.6 129.49 294.6 129.49 294.6 129.49 294.6 129.49 294.6 129.49 294.6 129.49 294.6 129.49 294.6 129.49 294.6 129.49 294.6 129.49 294.6 129.49 294.6 129.49 294.6 129.49 294.6 129.49 294.6 129.49 294.6 129.49 294.6 129.49 294.6 129.49 294.6 129.49 294.6 129.49 294.6 129.49 294.6 129.49 294.6 129.49 294.6 129.49 294.6 129.49 294.6 129.49 294.6 129.49 294.6 129.49 294.6 129.49 294.6 129.49 294.6 129.49 294.6 129.49 294.6 129.49"/><g class="aw"><path d="M350.7,156.64c0-.16,0-.17-.15-.17a1.66,1.66,0,0,1-1.22.43v.21a2,2,0,0,0,.88-.18v3.48c0,.25,0,.33-.63.33h-.21v.2c.23,0,.82,0,1.09,0s.85,0,1.09,0v-.2h-.22c-.61,0-.63-.08-.63-.33v-3.77"/><path d="M358,159.4c.11,0,.23,0,.23-.14s-.12-.13-.23-.13h-3.64c-.11,0-.23,0-.23.13s.12.14.23.14H358"/><path d="M363,160.28a2.07,2.07,0,0,1-1.38.59c-.4,0-.61-.3-.61-.73a3.56,3.56,0,0,1,.39-1.4,1.15,1.15,0,0,1,.92-.62c.66,0,.66.88.66,1.41,0,.24,0,.63,0,.75m.45-.92c0-1.06-.63-1.39-1.12-1.39a2,2,0,0,0-1.81,1.91,1.06,1.06,0,0,0,1.09,1.14,2.26,2.26,0,0,0,1.41-.57.65.65,0,0,0,.62.57.62.62,0,0,0,.56-.48.07.07,0,0,0-.08-.07c-.05,0-.07,0-.09.07-.12.33-.36.33-.37.33-.21,0-.21-.52-.21-.69s0-.15.07-.23a3.85,3.85,0,0,0,.77-1.58.07.07,0,0,0-.08-.07c-.07,0-.07,0-.1.14a3.94,3.94,0,0,1-.66,1.33Z"/></g><line class="ak" x1="212.75" y1="114.95" x2="233.15" y2="135.36"/><polygon points="230.42 136.86 236.2 138.41 234.65 132.63 230.42 136.86"/><polyline class="ak" points="302.53 25.72 302.53 11.76 77.12 11.86 77.11 21.51"/><polygon points="74.12 20.64 77.11 25.82 80.11 20.64 74.12 20.64"/><text class="af" transform="translate(212.8 56.85)">acce<tspan class="z" x="12.64" y="0">p</tspan><tspan x="16.29" y="0">t</tspan></text><text class="af" transform="translate(212.8 148.4)"><tspan class="m">r</tspan><tspan x="2.2" y="0">eject</tspan></text><text class="af" transform="translate(108.12 195.48)">I<tspan class="z" x="1.77" y="0">t</tspan><tspan x="3.46" y="0">e</tspan><tspan class="m" x="6.78" y="0">r</tspan><tspan x="8.99" y="0">a</tspan><tspan class="z" x="12.58" y="0">t</tspan><tspan x="14.28" y="0">e: </tspan><tspan class="ax" x="21.3" y="0">K</tspan><tspan x="25.09" y="0">eep same base p</tspan><tspan class="m" x="71.53" y="0">r</tspan><tspan x="73.73" y="0">e</tspan><tspan class="n" x="77.05" y="0">f</tspan><tspan x="78.96" y="0">ix and tigh</tspan><tspan class="z" x="108" y="0">t</tspan><tspan x="109.7" y="0" xml:space="preserve">en     f</tspan><tspan class="m" x="127.34" y="0">r</tspan><tspan x="129.55" y="0">action</tspan></text><text class="af" transform="translate(99.87 22.29)">I<tspan class="z" x="1.77" y="0">t</tspan><tspan x="3.46" y="0">e</tspan><tspan class="m" x="6.78" y="0">r</tspan><tspan x="8.99" y="0">a</tspan><tspan class="z" x="12.58" y="0">t</tspan><tspan x="14.28" y="0">e: Candida</tspan><tspan class="z" x="44.68" y="0">t</tspan><tspan x="46.37" y="0">e p</tspan><tspan class="m" x="55.14" y="0">r</tspan><tspan x="57.34" y="0">e</tspan><tspan class="n" x="60.66" y="0">f</tspan><tspan x="62.57" y="0">ix becomes n</tspan><tspan class="ag" x="98.29" y="0">e</tspan><tspan x="101.52" y="0">w base p</tspan><tspan class="m" x="126.41" y="0">r</tspan><tspan x="128.61" y="0">e</tspan><tspan class="n" x="131.93" y="0">f</tspan><tspan x="133.84" y="0">ix and </tspan><tspan class="m" x="152.87" y="0">r</tspan><tspan x="155.07" y="0">es</tspan><tspan class="z" x="160.83" y="0">e</tspan><tspan x="164.2" y="0" xml:space="preserve">t     f</tspan><tspan class="m" x="176.88" y="0">r</tspan><tspan x="179.08" y="0">action</tspan></text><text class="af" transform="translate(291.84 191.89)">*g<tspan class="m" x="7.29" y="0">r</tspan><tspan x="9.5" y="0">eed</tspan><tspan class="ay" x="19.73" y="0">y</tspan><tspan x="23.12" y="0">-DISC al</tspan><tspan class="ae" x="45.19" y="0">w</tspan><tspan class="z" x="49.74" y="0">a</tspan><tspan x="53.39" y="0">ys </tspan><tspan x="0" y="7.2">commits or </tspan><tspan class="m" x="31.08" y="7.2">r</tspan><tspan class="az" x="33.28" y="7.2">e</tspan><tspan x="36.5" y="7.2">vises candida</tspan><tspan class="z" x="73.08" y="7.2">t</tspan><tspan x="74.78" y="7.2">e </tspan><tspan x="0" y="14.4">s</tspan><tspan class="z" x="2.43" y="14.4">t</tspan><tspan x="4.13" y="14.4">eps on </tspan><tspan class="ay" x="24.08" y="14.4">t</tspan><tspan x="25.84" y="14.4">he </tspan><tspan class="ba" x="34.3" y="14.4">be</tspan><tspan class="bb" x="42.39" y="14.4">s</tspan><tspan class="ba" x="45.53" y="14.4">t solu</tspan><tspan class="bb" x="62.9" y="14.4">t</tspan><tspan class="ba" x="65.22" y="14.4">ion</tspan></text><text class="bc" transform="translate(25.34 72.64)"></text><text class="bc" transform="translate(219.12 103.01)"></text><text class="bc" transform="translate(87.1 25.01)"></text><text class="bc" transform="translate(95.41 197)"></text><g class="bd"><path d="M229.35,194.74a2.38,2.38,0,0,1-1.54.66c-.45,0-.67-.34-.67-.82a3.85,3.85,0,0,1,.43-1.56,1.26,1.26,0,0,1,1-.69c.74,0,.74,1,.74,1.57,0,.28,0,.71,0,.84m.5-1c0-1.18-.7-1.55-1.25-1.55a2.23,2.23,0,0,0-2,2.13,1.19,1.19,0,0,0,1.22,1.27,2.51,2.51,0,0,0,1.58-.63c.1.4.34.63.68.63a.69.69,0,0,0,.63-.53c0-.05,0-.07-.09-.07s-.07,0-.1.07c-.13.37-.4.37-.42.37-.23,0-.23-.59-.23-.77s0-.17.08-.26a4.47,4.47,0,0,0,.86-1.76.08.08,0,0,0-.09-.08c-.08,0-.08,0-.11.16a4.72,4.72,0,0,1-.74,1.49Z"/></g><g class="be"><path d="M271.44,21.42a2.38,2.38,0,0,1-1.54.66c-.45,0-.67-.34-.67-.82a3.85,3.85,0,0,1,.43-1.56,1.26,1.26,0,0,1,1-.69c.74,0,.74,1,.74,1.57,0,.27,0,.71,0,.84m.5-1c0-1.18-.7-1.55-1.25-1.55a2.23,2.23,0,0,0-2,2.13,1.19,1.19,0,0,0,1.22,1.27,2.51,2.51,0,0,0,1.58-.63c.1.4.34.63.68.63a.69.69,0,0,0,.63-.53.08.08,0,0,0-.09-.08c-.05,0-.07,0-.1.08-.13.37-.4.37-.42.37-.23,0-.23-.59-.23-.77s0-.17.08-.26a4.47,4.47,0,0,0,.86-1.76.08.08,0,0,0-.09-.08c-.08,0-.08,0-.11.16a4.57,4.57,0,0,1-.74,1.48Z"/></g><polygon class="at" points="360.09 88.82 360.09 88.82 360.09 88.82 360.09 88.82 360.09 88.82 360.09 88.82 360.09 88.82 360.09 88.82 360.09 88.82 360.09 88.82 360.09 88.82 360.09 88.82 360.09 88.82 360.09 88.82 360.09 88.82 360.09 88.82 360.09 88.82 360.09 88.82 360.09 88.82 360.09 88.82 360.09 88.82 360.09 88.82 360.09 88.82 360.09 88.82 360.09 88.82 360.09 88.82 360.09 88.82 360.09 88.82 360.09 88.82 360.09 88.82 360.09 88.82 360.09 88.82 360.09 88.82 360.09 88.82 360.09 88.82 360.09 88.82 360.09 88.82 360.09 88.82 360.09 88.82 360.09 88.82 360.09 88.82 360.09 88.82 360.09 88.82 360.09 88.82 360.09 88.82 360.09 88.82 360.09 88.82 360.09 88.82 360.09 88.82 360.09 88.82 360.09 88.82 360.09 88.82 360.09 88.82 360.09 88.82 360.09 88.82 360.09 88.82 360.09 88.82 360.09 88.82 360.09 88.82 360.09 88.82 360.09 88.82 360.09 88.82 360.09 88.82 360.09 88.82 360.09 88.82 360.09 88.82 360.09 88.82 360.09 88.82 360.09 88.82 360.09 88.82 360.09 88.82 360.09 88.82 360.09 88.82 360.09 88.82 360.09 88.82 360.09 88.82 360.09 88.82 360.09 88.82 360.09 88.82 360.09 88.82 360.09 88.82 360.09 88.82 360.09 88.82 360.09 88.82 360.09 88.82 360.09 88.82 360.09 88.82"/><g class="bf"><path d="M352,85.83c0-.18,0-.2-.17-.2a1.85,1.85,0,0,1-1.36.48v.24a2.19,2.19,0,0,0,1-.2V90c0,.27,0,.35-.7.35h-.24v.24c.26,0,.91,0,1.21,0s.95,0,1.21,0v-.24h-.23c-.68,0-.7-.08-.7-.35v-4.2"/><path d="M360.07,88.9c.13,0,.27,0,.27-.15s-.14-.15-.27-.15h-4c-.13,0-.26,0-.26.15s.13.15.26.15h4"/><path d="M365.69,89.88a2.33,2.33,0,0,1-1.53.65c-.45,0-.68-.33-.68-.81a3.87,3.87,0,0,1,.44-1.56,1.28,1.28,0,0,1,1-.69c.74,0,.74,1,.74,1.57,0,.28,0,.71,0,.84m.5-1c0-1.17-.7-1.54-1.25-1.54a2.22,2.22,0,0,0-2,2.12,1.19,1.19,0,0,0,1.21,1.27,2.51,2.51,0,0,0,1.58-.63c.1.4.34.63.68.63a.69.69,0,0,0,.63-.53.09.09,0,0,0-.09-.08.11.11,0,0,0-.1.08.47.47,0,0,1-.42.36c-.23,0-.23-.58-.23-.76s0-.17.08-.26a4.34,4.34,0,0,0,.86-1.76s0-.07-.09-.07-.08,0-.12.15a4.39,4.39,0,0,1-.73,1.49Z"/><path d="M368.87,91.7a.68.68,0,0,1-.66-.57,5.66,5.66,0,0,1-.07-1.12,4.44,4.44,0,0,1,.08-1.07.67.67,0,0,1,1.3,0,3.93,3.93,0,0,1,.09,1.11,5.55,5.55,0,0,1-.07,1.1.69.69,0,0,1-.67.59m1.22-1.62a2.35,2.35,0,0,0-.31-1.36,1.09,1.09,0,0,0-.91-.44c-1.21,0-1.21,1.42-1.21,1.8s0,1.77,1.21,1.77S370.09,90.45,370.09,90.08Z"/></g><text class="af" transform="translate(129.55 169.34)"><tspan class="bg">V</tspan><tspan x="3.94" y="0">S.</tspan></text><polygon class="at" points="164.41 182.2 164.41 182.2 164.41 182.2 164.41 182.2 164.41 182.2 164.41 182.2 164.41 182.2 164.41 182.2 164.41 182.2 164.41 182.2 164.41 182.2 164.41 182.2 164.41 182.2 164.41 182.2 164.41 182.2 164.41 182.2 164.41 182.2 164.41 182.2 164.41 182.2 164.41 182.2 164.41 182.2 164.41 182.2 164.41 182.2 164.41 182.2 164.41 182.2 164.41 182.2 164.41 182.2 164.41 182.2 164.41 182.2 164.41 182.2 164.41 182.2 164.41 182.2 164.41 182.2 164.41 182.2 164.41 182.2 164.41 182.2 164.41 182.2 164.41 182.2 164.41 182.2 164.41 182.2 164.41 182.2 164.41 182.2 164.41 182.2 164.41 182.2 164.41 182.2 164.41 182.2 164.41 182.2 164.41 182.2 164.41 182.2 164.41 182.2 164.41 182.2 164.41 182.2 164.41 182.2 164.41 182.2 164.41 182.2 164.41 182.2 164.41 182.2 164.41 182.2 164.41 182.2 164.41 182.2 164.41 182.2 164.41 182.2 164.41 182.2 164.41 182.2 164.41 182.2 164.41 182.2 164.41 182.2 164.41 182.2 164.41 182.2 164.41 182.2 164.41 182.2 164.41 182.2 164.41 182.2 164.41 182.2 164.41 182.2 164.41 182.2 164.41 182.2 164.41 182.2 164.41 182.2 164.41 182.2 164.41 182.2 164.41 182.2 164.41 182.2 164.41 182.2 164.41 182.2 164.41 182.2 164.41 182.2 164.41 182.2"/><g class="bh"><path d="M40.1,100.29a1.21,1.21,0,0,1,.86-.46.47.47,0,0,1,.47.53,6.13,6.13,0,0,1-.35,1.49,1,1,0,0,1-.84.68.58.58,0,0,1-.58-.4l0-.1.42-1.74m-1.6,3.33c0,.09,0,.1,0,.11h-.18c-.12,0-.24,0-.24.2a.13.13,0,0,0,.13.13l.64,0,.74,0c.05,0,.18,0,.18-.2s-.11-.13-.18-.13h-.3l.3-1.21a1.08,1.08,0,0,0,.7.25,2,2,0,0,0,2-2A1.1,1.1,0,0,0,41,99.59a1.51,1.51,0,0,0-1,.37,1,1,0,0,0-.8-.37.69.69,0,0,0-.6.39,2.25,2.25,0,0,0-.26.69c0,.09.1.09.16.09s.11,0,.14,0,0,0,.06-.2c.14-.56.3-.7.47-.7s.16,0,.16.26a1.45,1.45,0,0,1,0,.3Z"/><path d="M44.44,102.57a.27.27,0,0,0-.25.27.17.17,0,0,0,.19.18.29.29,0,0,0,.28-.31c0-.33-.38-.42-.64-.42a1.45,1.45,0,0,0-1.4,1.34.83.83,0,0,0,.89.84,1.32,1.32,0,0,0,1.21-.55.11.11,0,0,0-.09-.08s0,0-.07,0a1.38,1.38,0,0,1-1,.45.48.48,0,0,1-.5-.54,2,2,0,0,1,.32-1,.89.89,0,0,1,.68-.38.58.58,0,0,1,.42.15"/></g><g class="bi"><path d="M174.94,74.15a1.2,1.2,0,0,1,.86-.45.46.46,0,0,1,.47.52,6.13,6.13,0,0,1-.35,1.49,1,1,0,0,1-.84.68.58.58,0,0,1-.58-.4l0-.1.42-1.74m-1.59,3.33c0,.09,0,.1,0,.11h-.18c-.11,0-.24,0-.24.2a.13.13,0,0,0,.13.13l.64,0,.74,0c.05,0,.18,0,.18-.2s-.11-.13-.18-.13h-.29l.29-1.21a1.08,1.08,0,0,0,.7.25,2,2,0,0,0,2-2,1.1,1.1,0,0,0-1.21-1.14,1.51,1.51,0,0,0-1,.37,1,1,0,0,0-.8-.37.69.69,0,0,0-.6.39,2.25,2.25,0,0,0-.26.69c0,.1.1.1.16.1s.11,0,.14,0,0,0,.06-.2c.14-.56.3-.69.47-.69s.16,0,.16.25a1,1,0,0,1,0,.3Z"/><path d="M179.28,76.43a.28.28,0,0,0-.25.27.17.17,0,0,0,.19.18.29.29,0,0,0,.28-.31c0-.33-.38-.42-.64-.42a1.45,1.45,0,0,0-1.4,1.34.83.83,0,0,0,.89.84,1.32,1.32,0,0,0,1.21-.55.11.11,0,0,0-.09-.08s0,0-.07,0a1.38,1.38,0,0,1-1,.45.48.48,0,0,1-.5-.54,2,2,0,0,1,.32-1,.89.89,0,0,1,.68-.38.58.58,0,0,1,.42.15"/></g><line class="bj" x1="346.11" y1="140.78" x2="346.11" y2="178.75"/><rect x="344.49" y="140.53" width="3.25" height="0.5"/><rect x="344.49" y="178.5" width="3.25" height="0.5"/><line class="bj" x1="346.11" y1="139.09" x2="346.11" y2="129.35"/><rect x="344.49" y="138.84" width="3.25" height="0.5"/><rect x="344.49" y="129.1" width="3.25" height="0.5"/><line class="bj" x1="346.11" y1="79.95" x2="346.11" y2="69.56"/><rect x="344.49" y="79.7" width="3.25" height="0.5"/><rect x="344.49" y="69.31" width="3.25" height="0.5"/><line class="bj" x1="346.11" y1="97.39" x2="346.11" y2="81.51"/><rect x="344.49" y="97.14" width="3.25" height="0.5"/><rect x="344.49" y="81.26" width="3.25" height="0.5"/><polygon points="319.2 79.5 320.59 78.77 320.32 80.31 321.44 81.4 319.89 81.63 319.2 83.03 318.51 81.63 316.96 81.4 318.08 80.31 317.82 78.77 319.2 79.5"/><polygon points="309.64 138.28 311.02 137.56 310.76 139.1 311.88 140.19 310.33 140.42 309.64 141.82 308.94 140.42 307.39 140.19 308.52 139.1 308.25 137.56 309.64 138.28"/><text class="af" transform="translate(326.78 18.09)">Sa<tspan class="bk" x="7.1" y="0">m</tspan><tspan x="11.92" y="0">pling p</tspan><tspan class="m" x="30.83" y="0">r</tspan><tspan x="33.04" y="0">e</tspan><tspan class="n" x="36.35" y="0">f</tspan><tspan x="38.26" y="0">ix </tspan></text><polygon points="322.35 14.56 323.74 13.83 323.47 15.37 324.59 16.47 323.04 16.69 322.35 18.09 321.66 16.69 320.11 16.47 321.23 15.37 320.97 13.83 322.35 14.56"/><polyline class="ak" points="272.55 189.44 272.55 201.59 76.22 201.51 76.21 193.66"/><polygon points="79.21 194.53 76.21 189.35 73.22 194.53 79.21 194.53"/><text class="af" transform="translate(12.91 81.55)">Co<tspan class="bk" x="7.81" y="0">m</tspan><tspan x="12.63" y="0">pa</tspan><tspan class="m" x="19.83" y="0">r</tspan><tspan x="22.03" y="0">e </tspan><tspan class="ay" x="27.2" y="0">t</tspan><tspan x="28.96" y="0">he </tspan><tspan x="4.58" y="7.2">sco</tspan><tspan class="m" x="13.48" y="7.2">r</tspan><tspan x="15.68" y="7.2">es </tspan><tspan class="bk" x="23.29" y="7.2">f</tspan><tspan x="25.14" y="7.2">or </tspan><tspan x="7.02" y="14.4">p</tspan><tspan class="m" x="10.62" y="14.4">r</tspan><tspan x="12.82" y="14.4">e</tspan><tspan class="n" x="16.14" y="14.4">f</tspan><tspan x="18.05" y="14.4">i</tspan><tspan class="ae" x="19.54" y="14.4">x</tspan><tspan x="22.79" y="14.4" xml:space="preserve">es     </tspan><tspan x="12.54" y="21.6" xml:space="preserve">and      </tspan><tspan x="5.14" y="28.8">based on </tspan><tspan class="bl" x="7.92" y="36">r</tspan><tspan x="10.11" y="36">ollouts</tspan></text><line class="ah" x1="312.93" y1="69.18" x2="312.93" y2="76.73"/><polygon points="310.44 76 312.93 80.31 315.42 76 310.44 76"/><text class="af" transform="translate(286.25 75.51)">ad<tspan class="az" x="7.2" y="0">v</tspan><tspan x="10.11" y="0">ance</tspan></text><line class="bj" x1="328.11" y1="152.84" x2="328.11" y2="178.75"/><rect x="326.49" y="152.59" width="3.25" height="0.5"/><rect x="326.49" y="178.5" width="3.25" height="0.5"/><line class="bj" x1="328.11" y1="151.23" x2="328.11" y2="129.35"/><rect x="326.49" y="150.98" width="3.25" height="0.5"/><rect x="326.49" y="129.1" width="3.25" height="0.5"/><line class="ah" x1="332.67" y1="151.57" x2="340.16" y2="143.5"/><polygon points="341.49 145.74 342.6 140.88 337.84 142.34 341.49 145.74"/><text class="af" transform="translate(338.88 175.38) rotate(-90)">cont<tspan class="m" x="11.4" y="0">r</tspan><tspan x="13.6" y="0">act</tspan></text><polygon class="at" points="109.14 56.63 109.14 56.63 109.14 56.63 109.14 56.63 109.14 56.63 109.14 56.63 109.14 56.63 109.14 56.63 109.14 56.63 109.14 56.63 109.14 56.63 109.14 56.63 109.14 56.63 109.14 56.63 109.14 56.63 109.14 56.63 109.14 56.63 109.14 56.63 109.14 56.63 109.14 56.63 109.14 56.63 109.14 56.63 109.14 56.63 109.14 56.63 109.14 56.63 109.14 56.63 109.14 56.63 109.14 56.63 109.14 56.63 109.14 56.63 109.14 56.63 109.14 56.63 109.14 56.63 109.14 56.63 109.14 56.63 109.14 56.63 109.14 56.63 109.14 56.63 109.14 56.63 109.14 56.63 109.14 56.63 109.14 56.63 109.14 56.63 109.14 56.63 109.14 56.63 109.14 56.63 109.14 56.63 109.14 56.63 109.14 56.63 109.14 56.63 109.14 56.63 109.14 56.63 109.14 56.63 109.14 56.63 109.14 56.63 109.14 56.63 109.14 56.63 109.14 56.63 109.14 56.63 109.14 56.63 109.14 56.63 109.14 56.63 109.14 56.63 109.14 56.63 109.14 56.63 109.14 56.63 109.14 56.63 109.14 56.63 109.14 56.63 109.14 56.63 109.14 56.63 109.14 56.63 109.14 56.63 109.14 56.63 109.14 56.63 109.14 56.63 109.14 56.63 109.14 56.63 109.14 56.63 109.14 56.63 109.14 56.63 109.14 56.63 109.14 56.63 109.14 56.63 109.14 56.63 109.14 56.63 109.14 56.63 109.14 56.63"/><g class="bm"><path d="M95.09,54a1.19,1.19,0,0,1,.86-.46.47.47,0,0,1,.47.53,6.13,6.13,0,0,1-.35,1.49,1,1,0,0,1-.85.68.55.55,0,0,1-.57-.4v-.1L95.09,54m-1.61,3.34c0,.1,0,.1,0,.11h-.18c-.12,0-.24,0-.24.2a.13.13,0,0,0,.13.13l.64,0,.75,0s.18,0,.18-.2-.11-.13-.18-.13h-.3l.3-1.22a1,1,0,0,0,.7.26,2,2,0,0,0,2-2.06A1.11,1.11,0,0,0,96,53.24a1.44,1.44,0,0,0-1,.38,1,1,0,0,0-.8-.38.71.71,0,0,0-.61.4,2.25,2.25,0,0,0-.26.69c0,.1.1.1.16.1s.11,0,.14,0,0,0,.06-.2c.14-.56.3-.7.47-.7s.16,0,.16.26a1,1,0,0,1,0,.3Z"/><path d="M98.35,58c-.24,0-.38-.21-.38-.5a4.57,4.57,0,0,1,.18-.89.41.41,0,0,1,.13-.21.82.82,0,0,1,.57-.32c.19,0,.36.14.36.47a2.94,2.94,0,0,1-.25,1,.8.8,0,0,1-.61.47m.24-3.14a.24.24,0,0,0,0-.08.08.08,0,0,0-.08-.07l-.62.05s-.11,0-.11.11.07.07.13.07c.23,0,.23,0,.23.08a3.43,3.43,0,0,1-.07.34l-.12.44c0,.17-.31,1.23-.32,1.29a1.25,1.25,0,0,0,0,.24.73.73,0,0,0,.71.8,1.42,1.42,0,0,0,1.26-1.38.75.75,0,0,0-.73-.81.94.94,0,0,0-.61.27Z"/></g><g class="bn"><path d="M18.92,100.62a1.24,1.24,0,0,1,.86-.45.47.47,0,0,1,.47.53,6.13,6.13,0,0,1-.35,1.49,1,1,0,0,1-.84.68.58.58,0,0,1-.58-.4v-.1l.43-1.75M17.32,104c0,.1,0,.11,0,.12H17.1c-.12,0-.25,0-.25.19a.13.13,0,0,0,.13.14l.64,0,.75,0c.05,0,.18,0,.18-.21s-.11-.12-.18-.12h-.3l.3-1.21a1,1,0,0,0,.7.25,2,2,0,0,0,2-2.05,1.11,1.11,0,0,0-1.22-1.15,1.45,1.45,0,0,0-1,.38,1,1,0,0,0-.8-.38.71.71,0,0,0-.61.4,2.16,2.16,0,0,0-.26.69c0,.09.1.09.17.09s.1,0,.13,0,0,0,.06-.2c.14-.56.3-.7.47-.7s.16,0,.16.26a1,1,0,0,1,0,.3Z"/><path d="M22.18,104.68c-.24,0-.37-.2-.37-.49a3.91,3.91,0,0,1,.18-.9.39.39,0,0,1,.12-.2.79.79,0,0,1,.58-.32c.19,0,.35.14.35.47a2.67,2.67,0,0,1-.25,1,.78.78,0,0,1-.61.47m.25-3.13v-.08a.06.06,0,0,0-.07-.07l-.62,0a.1.1,0,0,0-.11.11c0,.07.07.07.12.07.24,0,.24,0,.24.07a3,3,0,0,1-.08.34l-.11.45c0,.16-.31,1.23-.32,1.29a.84.84,0,0,0,0,.24.73.73,0,0,0,.72.8,1.41,1.41,0,0,0,1.25-1.38.74.74,0,0,0-.73-.81,1,1,0,0,0-.61.27Z"/></g></svg>