<svg xmlns="http://www.w3.org/2000/svg" xmlns:xlink="http://www.w3.org/1999/xlink" viewBox="0 0 216 216"><defs><style>.a{fill:#d3d3d3;}.b{fill:#fff;}.c{font-size:7px;font-family:Futura-Medium, Futura;font-weight:500;}.d{letter-spacing:-0.01em;}.e{letter-spacing:0.01em;}.f{letter-spacing:0.01em;}.g{letter-spacing:-0.02em;}.h{fill:#316e8e;}.i{fill:#a1cd40;}.j{fill:#fce621;}.k{fill:#57ba53;}.l,.q,.r{fill:none;stroke:#000;stroke-miterlimit:10;}.l{stroke-width:2px;}.m{letter-spacing:-0.01em;}.n{letter-spacing:0.02em;}.o{letter-spacing:-0.02em;}.p{fill:#21a187;}.r{stroke-width:0.5px;}</style></defs><title>icmlsquare14</title><rect class="a" x="4.48" y="4.72" width="206.59" height="206.59" rx="22.42"/><path d="M188.65,5.22a22,22,0,0,1,21.92,21.93V188.89a21.94,21.94,0,0,1-21.92,21.92H26.91A22,22,0,0,1,5,188.89V27.15A22,22,0,0,1,26.91,5.22H188.65m0-1H26.91A23,23,0,0,0,4,27.15V188.89a23,23,0,0,0,22.93,22.92H188.65a23,23,0,0,0,22.92-22.92V27.15A23,23,0,0,0,188.65,4.22Z"/><rect class="b" x="7.52" y="7.37" width="200.96" height="200.96" rx="20.3"/><rect class="a" x="26.41" y="20.93" width="13.94" height="33.22"/><text class="c" transform="translate(35.68 48.96) rotate(-90)">p<tspan class="d" x="4.2" y="0">r</tspan><tspan x="6.75" y="0">o</tspan><tspan class="e" x="10.96" y="0">m</tspan><tspan class="f" x="16.58" y="0">p</tspan><tspan x="20.84" y="0">t</tspan></text><image width="1420" height="104" transform="matrix(-0.05, 0, 0, 0.09, 144.46, 178.93)" xlink:href="icmlsquare141.png"/><text class="c" transform="translate(148.59 185.68)">High p<tspan class="d" x="21.26" y="0">r</tspan><tspan x="23.82" y="0">obability</tspan></text><text class="c" transform="translate(15.63 185.68)">L<tspan class="g" x="3.1" y="0">o</tspan><tspan x="7.18" y="0">w p</tspan><tspan class="d" x="18.95" y="0">r</tspan><tspan x="21.51" y="0">obability</tspan></text><rect class="a" x="62.5" y="20.93" width="13.94" height="33.22"/><rect class="h" x="62.5" y="56.14" width="13.94" height="55.53"/><text class="c" transform="translate(71.78 48.96) rotate(-90)">p<tspan class="d" x="4.2" y="0">r</tspan><tspan x="6.75" y="0">o</tspan><tspan class="e" x="10.96" y="0">m</tspan><tspan class="f" x="16.58" y="0">p</tspan><tspan x="20.84" y="0">t</tspan></text><rect class="a" x="98.03" y="20.93" width="13.94" height="33.22"/><rect class="i" x="98.03" y="56.14" width="13.94" height="25.81"/><text class="c" transform="translate(107.3 48.96) rotate(-90)">p<tspan class="d" x="4.2" y="0">r</tspan><tspan x="6.75" y="0">o</tspan><tspan class="e" x="10.96" y="0">m</tspan><tspan class="f" x="16.58" y="0">p</tspan><tspan x="20.84" y="0">t</tspan></text><rect class="a" x="133" y="20.93" width="13.94" height="33.22"/><rect class="a" x="133" y="56.14" width="13.94" height="25.81"/><text class="c" transform="translate(142.27 48.96) rotate(-90)">p<tspan class="d" x="4.2" y="0">r</tspan><tspan x="6.75" y="0">o</tspan><tspan class="e" x="10.96" y="0">m</tspan><tspan class="f" x="16.58" y="0">p</tspan><tspan x="20.84" y="0">t</tspan></text><rect class="j" x="133" y="84" width="13.94" height="42.64"/><rect class="a" x="168.87" y="20.74" width="13.94" height="33.22"/><rect class="a" x="168.87" y="55.96" width="13.94" height="25.81"/><text class="c" transform="translate(178.15 48.77) rotate(-90)">p<tspan class="d" x="4.2" y="0">r</tspan><tspan x="6.75" y="0">o</tspan><tspan class="e" x="10.96" y="0">m</tspan><tspan class="f" x="16.58" y="0">p</tspan><tspan x="20.84" y="0">t</tspan></text><rect class="a" x="168.87" y="83.82" width="13.94" height="42.64"/><rect class="k" x="168.86" y="128.6" width="13.94" height="20.3"/><line class="l" x1="87.26" y1="106.99" x2="87.26" y2="95.05"/><polygon points="92.24 96.51 87.26 87.88 82.27 96.51 92.24 96.51"/><text class="c" transform="translate(89.19 136.38) rotate(-90)">cont<tspan class="m" x="13.3" y="0">r</tspan><tspan x="15.87" y="0">act</tspan></text><polygon points="69.32 109.61 72.96 107.69 72.26 111.75 75.2 114.61 71.14 115.2 69.32 118.89 67.5 115.2 63.43 114.61 66.38 111.75 65.68 107.69 69.32 109.61"/><polygon points="105.02 79.99 108.66 78.08 107.97 82.13 110.91 85 106.84 85.59 105.02 89.27 103.2 85.59 99.14 85 102.08 82.13 101.38 78.08 105.02 79.99"/><polygon points="139.88 124.84 143.52 122.93 142.82 126.98 145.76 129.85 141.7 130.44 139.88 134.13 138.06 130.44 133.99 129.85 136.94 126.98 136.24 122.93 139.88 124.84"/><polygon points="83.29 194.69 86.92 192.78 86.23 196.83 89.17 199.7 85.11 200.29 83.29 203.98 81.47 200.29 77.4 199.7 80.34 196.83 79.65 192.78 83.29 194.69"/><text class="c" transform="translate(90.74 200.57)">Sa<tspan class="e" x="8.28" y="0">m</tspan><tspan x="13.9" y="0">pling p</tspan><tspan class="m" x="35.97" y="0">r</tspan><tspan x="38.54" y="0">e</tspan><tspan class="n" x="42.41" y="0">f</tspan><tspan x="44.64" y="0">ix </tspan></text><polygon points="175.76 148.17 179.4 146.25 178.7 150.31 181.65 153.17 177.58 153.76 175.76 157.45 173.94 153.76 169.88 153.17 172.82 150.31 172.12 146.25 175.76 148.17"/><line class="l" x1="122.51" y1="84.55" x2="122.51" y2="119.37"/><polygon points="117.52 117.91 122.51 126.54 127.49 117.91 117.52 117.91"/><text class="c" transform="translate(124.32 159.72) rotate(-90)">ad<tspan class="o" x="8.39" y="0">v</tspan><tspan x="11.79" y="0">ance</tspan></text><line class="l" x1="157.75" y1="129.4" x2="157.75" y2="141.65"/><polygon points="152.76 140.19 157.75 148.83 162.73 140.19 152.76 140.19"/><text class="c" transform="translate(159.04 123.84) rotate(-90)">ad<tspan class="o" x="8.39" y="0">v</tspan><tspan x="11.79" y="0">ance</tspan></text><polygon points="33.38 52.46 37.01 50.55 36.32 54.6 39.26 57.47 35.19 58.06 33.38 61.74 31.56 58.06 27.49 57.47 30.43 54.6 29.74 50.55 33.38 52.46"/><rect class="p" x="56.67" y="20.93" width="3.83" height="33.22"/><rect class="p" x="91.63" y="20.93" width="3.83" height="33.22"/><rect class="i" x="126.34" y="20.93" width="3.83" height="61.02"/><rect class="j" x="162.17" y="20.93" width="3.83" height="105.53"/><rect class="p" x="19.98" y="20.93" width="3.83" height="33.22"/><text class="c" transform="translate(14.03 109.71)">candida<tspan class="f" x="25.71" y="0">t</tspan><tspan x="27.68" y="0">e </tspan><tspan x="0" y="8.4">p</tspan><tspan class="m" x="4.2" y="8.4">r</tspan><tspan x="6.77" y="8.4">e</tspan><tspan class="n" x="10.64" y="8.4">f</tspan><tspan x="12.87" y="8.4">ix s</tspan><tspan class="f" x="23.52" y="8.4">t</tspan><tspan x="25.49" y="8.4">ep</tspan></text><text class="c" transform="translate(14.03 83.82)">base <tspan x="0" y="8.4">p</tspan><tspan class="m" x="4.2" y="8.4">r</tspan><tspan x="6.77" y="8.4">e</tspan><tspan class="n" x="10.64" y="8.4">f</tspan><tspan x="12.87" y="8.4">ix</tspan></text><line class="q" x1="21.89" y1="75.66" x2="21.89" y2="57.47"/><line class="q" x1="42.65" y1="103.01" x2="58.59" y2="84.55"/><line class="r" x1="187.29" y1="21.18" x2="187.29" y2="148.58"/><rect x="185.66" y="20.93" width="3.25" height="0.5"/><rect x="185.66" y="148.33" width="3.25" height="0.5"/><text class="c" transform="translate(191.25 57.47) rotate(90)">candida<tspan class="f" x="25.71" y="0">t</tspan><tspan x="27.68" y="0">e p</tspan><tspan class="m" x="37.91" y="0">r</tspan><tspan x="40.48" y="0">e</tspan><tspan class="n" x="44.35" y="0">f</tspan><tspan x="46.58" y="0">ix</tspan></text><text class="c" transform="translate(177.68 119.93) rotate(-90)">commit<tspan class="f" x="22.27" y="0">t</tspan><tspan x="24.25" y="0" xml:space="preserve">ed     s</tspan><tspan class="f" x="45.96" y="0">t</tspan><tspan x="47.94" y="0">eps</tspan></text></svg>