<svg xmlns="http://www.w3.org/2000/svg" viewBox="0 0 396 180"><defs><style>.a{fill:#d3d3d3;}.b{fill:#fff;}.c,.t{font-size:6.19px;}.aj,.au,.av,.aw,.ax,.ay,.az,.ba,.bb,.bc,.c{font-family:Futura-Medium, Futura;font-weight:500;}.d{letter-spacing:-0.01em;}.e{letter-spacing:-0.01em;}.f{letter-spacing:0.01em;}.g{letter-spacing:-0.02em;}.h{letter-spacing:0.01em;}.i{letter-spacing:0.02em;}.j{letter-spacing:-0.08em;}.k{letter-spacing:-0.06em;}.l{font-size:7.07px;}.ap,.l,.t{font-family:Futura-Bold, Futura;font-weight:700;}.m{letter-spacing:0.02em;}.n{letter-spacing:0.01em;}.o{letter-spacing:0.01em;}.p{letter-spacing:0.01em;}.q{letter-spacing:0.01em;}.r{fill:#55bb6d;}.ag,.r,.v,.w{opacity:0.25;}.s{fill:none;stroke:#000;stroke-miterlimit:10;}.u{letter-spacing:-0.02em;}.v{fill:#fce621;}.w{fill:#441854;}.x{letter-spacing:0.01em;}.y{letter-spacing:0.01em;}.z{letter-spacing:-0.02em;}.aa{letter-spacing:0.02em;}.ab{letter-spacing:-0.02em;}.ac{letter-spacing:0.03em;}.ad{letter-spacing:-0.04em;}.ae{letter-spacing:-0.03em;}.af{letter-spacing:-0.02em;}.ag{fill:#316e8e;}.ah{letter-spacing:-0.06em;}.ai{letter-spacing:-0.05em;}.aj{font-size:6.25px;}.ak{letter-spacing:-0.01em;}.al{letter-spacing:-0.01em;}.am{letter-spacing:0.01em;}.an{letter-spacing:0.01em;}.ao{letter-spacing:-0.02em;}.ap{font-size:7px;}.aq{letter-spacing:0.01em;}.ar{letter-spacing:0.02em;}.as{letter-spacing:0.01em;}.at{letter-spacing:0.05em;}.av{letter-spacing:-0.02em;}.aw{letter-spacing:0.02em;}.ax{letter-spacing:-0.01em;}.ay{letter-spacing:0.02em;}.az{letter-spacing:0em;}.ba{letter-spacing:0.01em;}.bb{letter-spacing:0.01em;}.bc{letter-spacing:-0.02em;}</style></defs><title>Neurips-long7</title><rect class="a" x="4.5" y="5.46" width="385.85" height="169.94" rx="22.42"/><path d="M367.93,6a21.94,21.94,0,0,1,21.92,21.92V153a21.94,21.94,0,0,1-21.92,21.92h-341A21.94,21.94,0,0,1,5,153V27.88A21.94,21.94,0,0,1,26.92,6h341m0-1h-341A23,23,0,0,0,4,27.88V153a23,23,0,0,0,22.92,22.92h341A23,23,0,0,0,390.85,153V27.88A23,23,0,0,0,367.93,5Z"/><rect class="b" x="7.37" y="8.11" width="380.44" height="164.85" rx="20.3"/><text class="c" transform="translate(46.77 45.98)">The t<tspan class="d" x="13.4" y="0">r</tspan><tspan x="15.67" y="0">ain t</tspan><tspan class="e" x="27.91" y="0">r</tspan><tspan class="f" x="30.18" y="0">a</tspan><tspan class="g" x="33.95" y="0">v</tspan><tspan x="36.95" y="0">els at 60 </tspan><tspan class="h" x="63.18" y="0">m</tspan><tspan x="68.15" y="0">ph. \n In 3.5 hours, </tspan><tspan class="i" x="125.28" y="0">t</tspan><tspan x="127.09" y="0">he dis</tspan><tspan class="f" x="143.57" y="0">t</tspan><tspan x="145.32" y="0">ance it t</tspan><tspan class="e" x="167.53" y="0">r</tspan><tspan class="f" x="169.8" y="0">a</tspan><tspan class="g" x="173.56" y="0">v</tspan><tspan x="176.57" y="0">els is:\n 60miles/hour×3.5hours=</tspan><tspan class="j" x="270.43" y="0">2</tspan><tspan class="k" x="273.73" y="0">1</tspan><tspan x="277.18" y="0">0miles.</tspan></text><text class="l" transform="translate(44.14 34.91)">Sin<tspan class="m" x="11.42" y="0">g</tspan><tspan x="16.47" y="0">le </tspan><tspan class="n" x="25.61" y="0">s</tspan><tspan class="o" x="29.3" y="0">t</tspan><tspan x="32.01" y="0">ep </tspan><tspan class="p" x="43.94" y="0">g</tspan><tspan x="48.96" y="0">ene</tspan><tspan class="q" x="62.8" y="0">r</tspan><tspan x="66.14" y="0">a</tspan><tspan class="n" x="71.09" y="0">t</tspan><tspan x="73.83" y="0">ion</tspan></text><rect class="r" x="44.14" y="39.99" width="302.07" height="7.9"/><polyline class="s" points="44.14 49.95 44.14 52.59 346.21 52.59 346.21 49.95"/><line class="s" x1="195.18" y1="52.59" x2="195.18" y2="55.55"/><text class="t" transform="translate(190.95 61.99)">y0</text><text class="c" transform="translate(46.77 114.54)">The t<tspan class="d" x="13.4" y="0">r</tspan><tspan x="15.67" y="0">ain t</tspan><tspan class="e" x="27.91" y="0">r</tspan><tspan class="f" x="30.18" y="0">a</tspan><tspan class="g" x="33.95" y="0">v</tspan><tspan x="36.95" y="0">els at 60 </tspan><tspan class="h" x="63.18" y="0">m</tspan><tspan x="68.15" y="0">ph. \n In 3.5 hours, </tspan><tspan class="i" x="125.28" y="0">t</tspan><tspan x="127.09" y="0">he dis</tspan><tspan class="f" x="143.57" y="0">t</tspan><tspan x="145.32" y="0">ance it t</tspan><tspan class="e" x="167.53" y="0">r</tspan><tspan class="f" x="169.8" y="0">a</tspan><tspan class="g" x="173.56" y="0">v</tspan><tspan x="176.57" y="0">els is:\n 60miles/hour×3.5hours=</tspan><tspan class="j" x="270.43" y="0">2</tspan><tspan class="k" x="273.73" y="0">1</tspan><tspan x="277.18" y="0">0miles.</tspan></text><text class="l" transform="translate(44.14 103.47)">Sen<tspan class="o" x="13.83" y="0">t</tspan><tspan x="16.54" y="0">ence l</tspan><tspan class="u" x="38.41" y="0">ev</tspan><tspan x="47.25" y="0">el deco</tspan><tspan class="m" x="74.33" y="0">m</tspan><tspan x="81.47" y="0">posi</tspan><tspan class="n" x="97.13" y="0">t</tspan><tspan x="99.86" y="0">ion</tspan></text><rect class="r" x="44.14" y="108.67" width="89.42" height="8.74"/><rect class="v" x="133.56" y="108.67" width="112.54" height="8.74"/><rect class="w" x="246.11" y="108.67" width="100.11" height="8.74"/><polyline class="s" points="45.16 119.22 45.16 121.86 132.8 121.86 132.8 119.22"/><line class="s" x1="88.98" y1="121.86" x2="88.98" y2="124.83"/><text class="t" transform="translate(84.24 131.77)">y0</text><polyline class="s" points="134.86 119.22 134.86 121.86 245.3 121.86 245.3 119.22"/><line class="s" x1="190.08" y1="121.86" x2="190.08" y2="124.83"/><text class="t" transform="translate(185.85 131.77)">y1</text><polyline class="s" points="247.21 119.22 247.21 121.86 345.68 121.86 345.68 119.22"/><line class="s" x1="296.44" y1="121.86" x2="296.44" y2="124.83"/><text class="t" transform="translate(292.21 131.77)">y2</text><rect class="r" x="44.27" y="145.59" width="80.33" height="8.74"/><rect class="v" x="124.59" y="145.59" width="46.34" height="8.74"/><rect class="w" x="170.93" y="145.59" width="174.75" height="8.74"/><text class="c" transform="translate(46.77 152.46)">The t<tspan class="d" x="13.4" y="0">r</tspan><tspan x="15.67" y="0">ain t</tspan><tspan class="e" x="27.91" y="0">r</tspan><tspan class="f" x="30.18" y="0">a</tspan><tspan class="g" x="33.95" y="0">v</tspan><tspan x="36.95" y="0">els at 60 </tspan><tspan class="h" x="63.18" y="0">m</tspan><tspan x="68.15" y="0">ph. \n In 3.5 hours, </tspan><tspan class="i" x="125.28" y="0">t</tspan><tspan x="127.09" y="0">he dis</tspan><tspan class="f" x="143.57" y="0">t</tspan><tspan x="145.32" y="0">ance it t</tspan><tspan class="e" x="167.53" y="0">r</tspan><tspan class="f" x="169.8" y="0">a</tspan><tspan class="g" x="173.56" y="0">v</tspan><tspan x="176.57" y="0">els is:\n 60miles/hour×3.5hours=</tspan><tspan class="j" x="270.43" y="0">2</tspan><tspan class="k" x="273.73" y="0">1</tspan><tspan x="277.18" y="0">0miles.</tspan></text><text class="l" transform="translate(44.14 141.39)">Dynamic deco<tspan class="m" x="53.05" y="0">m</tspan><tspan x="60.19" y="0">posi</tspan><tspan class="x" x="75.85" y="0">t</tspan><tspan x="78.58" y="0">ion</tspan></text><polyline class="s" points="45.16 156.93 45.16 159.57 123.46 159.57 123.46 156.93"/><line class="s" x1="84.31" y1="159.57" x2="84.31" y2="162.54"/><text class="t" transform="translate(80.08 169.48)">y0</text><polyline class="s" points="172.83 156.64 172.83 159.28 344.89 159.28 344.89 156.64"/><line class="s" x1="258.86" y1="159.28" x2="258.86" y2="162.24"/><text class="t" transform="translate(254.63 169.19)">y2</text><polyline class="s" points="126.36 156.93 126.36 159.57 169.68 159.57 169.68 156.93"/><line class="s" x1="148.02" y1="159.57" x2="148.02" y2="162.54"/><text class="t" transform="translate(143.79 169.48)">y1</text><text class="c" transform="translate(228.97 139.64)">Dynamical<tspan class="f" x="29.58" y="0">l</tspan><tspan x="31.18" y="0">y adjus</tspan><tspan class="y" x="51.29" y="0">t</tspan><tspan x="53.03" y="0">ed s</tspan><tspan class="f" x="64.58" y="0">t</tspan><tspan x="66.33" y="0">eps and s</tspan><tspan class="f" x="93.11" y="0">t</tspan><tspan x="94.85" y="0">ep sizes</tspan></text><text class="c" transform="translate(216.7 103.54)"><tspan class="z">P</tspan><tspan x="3.19" y="0">e</tspan><tspan class="aa" x="6.61" y="0">r</tspan><tspan x="9.02" y="0">iod or n</tspan><tspan class="ab" x="31.22" y="0">e</tspan><tspan class="f" x="34.55" y="0">w</tspan><tspan x="39.39" y="0">line </tspan><tspan class="ac" x="51.2" y="0">c</tspan><tspan x="54.3" y="0">ha</tspan><tspan class="d" x="61.41" y="0">r</tspan><tspan x="63.68" y="0">ac</tspan><tspan class="y" x="70.33" y="0">t</tspan><tspan x="72.08" y="0">er ma</tspan><tspan class="aa" x="88.33" y="0">r</tspan><tspan x="90.73" y="0">ks end of s</tspan><tspan class="f" x="120.64" y="0">t</tspan><tspan x="122.38" y="0">ep</tspan></text><text class="c" transform="translate(46.77 79.04)">The t<tspan class="d" x="13.4" y="0">r</tspan><tspan x="15.67" y="0">ain t</tspan><tspan class="e" x="27.91" y="0">r</tspan><tspan class="f" x="30.18" y="0">a</tspan><tspan class="g" x="33.95" y="0">v</tspan><tspan x="36.95" y="0">els at 60 </tspan><tspan class="h" x="63.18" y="0">m</tspan><tspan x="68.15" y="0">ph. \n In 3.5 hours, </tspan><tspan class="i" x="125.28" y="0">t</tspan><tspan x="127.09" y="0">he dis</tspan><tspan class="f" x="143.57" y="0">t</tspan><tspan x="145.32" y="0">ance it t</tspan><tspan class="e" x="167.53" y="0">r</tspan><tspan class="f" x="169.8" y="0">a</tspan><tspan class="g" x="173.56" y="0">v</tspan><tspan x="176.57" y="0">els is:\n 60miles/hour×3.5hours=</tspan><tspan class="j" x="270.43" y="0">2</tspan><tspan class="k" x="273.73" y="0">1</tspan><tspan x="277.18" y="0">0miles.</tspan></text><text class="l" transform="translate(44.14 67.97)"><tspan class="ad">T</tspan><tspan x="3.51" y="0">o</tspan><tspan class="ae" x="8.46" y="0">k</tspan><tspan x="13.18" y="0">en l</tspan><tspan class="af" x="27.01" y="0">ev</tspan><tspan x="35.85" y="0">el deco</tspan><tspan class="m" x="62.93" y="0">m</tspan><tspan x="70.07" y="0">posi</tspan><tspan class="x" x="85.73" y="0">t</tspan><tspan x="88.46" y="0">ion</tspan></text><rect class="r" x="44.14" y="72.85" width="13.33" height="8.74"/><rect class="ag" x="57.47" y="72.85" width="14.28" height="8.74"/><rect class="w" x="71.75" y="72.85" width="20.07" height="8.74"/><rect class="r" x="91.82" y="72.85" width="7.53" height="8.74"/><rect class="v" x="99.35" y="72.85" width="9.79" height="8.74"/><rect class="ag" x="109.14" y="72.85" width="15.69" height="8.74"/><rect class="w" x="124.83" y="72.85" width="8.74" height="8.74"/><rect class="v" x="133.56" y="72.85" width="7.04" height="8.74"/><rect class="ag" x="140.6" y="72.85" width="10.98" height="8.74"/><rect class="r" x="151.57" y="72.85" width="19.13" height="8.74"/><rect class="v" x="170.71" y="72.85" width="11.28" height="8.74"/><rect class="w" x="181.98" y="72.85" width="24.4" height="8.74"/><rect class="r" x="206.38" y="72.85" width="5.3" height="8.74"/><rect class="ag" x="211.68" y="72.85" width="19.86" height="8.74"/><rect class="r" x="231.54" y="72.85" width="6.92" height="8.74"/><rect class="v" x="238.46" y="72.85" width="7.72" height="8.74"/><rect class="r" x="246.18" y="72.85" width="8.74" height="8.74"/><rect class="ag" x="254.91" y="72.85" width="30.1" height="8.74"/><rect class="v" x="285.01" y="72.87" width="12.92" height="8.74"/><rect class="r" x="297.93" y="72.85" width="15.23" height="8.74"/><rect class="w" x="313.16" y="72.85" width="14.73" height="8.74"/><rect class="v" x="327.89" y="72.85" width="15.93" height="8.74"/><text class="t" transform="translate(46.57 90.37)">y0</text><text class="t" transform="translate(60.38 90)">y1</text><text class="t" transform="translate(77.55 90)">y2</text><text class="t" transform="translate(93.18 90)">...</text><text class="t" transform="translate(288.48 89.88)">...</text><text class="t" transform="translate(329.7 89.88)">y<tspan class="ah" x="4.26" y="0">2</tspan><tspan x="8.11" y="0">1</tspan></text><text class="t" transform="translate(314.37 89.88)">y20</text><text class="t" transform="translate(299.38 89.88)">y<tspan class="ai" x="4.26" y="0">1</tspan><tspan x="8.12" y="0">9</tspan></text><text class="aj" transform="translate(253.89 34.83)">Enti<tspan class="ak" x="10.22" y="0">r</tspan><tspan x="12.52" y="0">e gene</tspan><tspan class="al" x="31.99" y="0">r</tspan><tspan x="34.28" y="0">ation is a single s</tspan><tspan class="am" x="82.83" y="0">t</tspan><tspan x="84.6" y="0">ep</tspan></text><text class="c" transform="translate(290.48 67.44)">Ea<tspan class="ac" x="7.21" y="0">c</tspan><tspan x="10.32" y="0">h </tspan><tspan class="an" x="15.62" y="0">t</tspan><tspan x="17.35" y="0">o</tspan><tspan class="ao" x="21.07" y="0">k</tspan><tspan x="24.05" y="0">en is a s</tspan><tspan class="f" x="46.86" y="0">t</tspan><tspan x="48.6" y="0">ep</tspan></text><polygon class="a" points="319.1 23.7 71.25 23.7 53.97 7.01 335.86 7.01 319.1 23.7"/><text class="ap" transform="translate(79.23 17)">P<tspan class="aq" x="4.75" y="0">r</tspan><tspan x="8.04" y="0">o</tspan><tspan class="ar" x="12.94" y="0">m</tspan><tspan class="as" x="20.01" y="0">p</tspan><tspan class="at" x="24.96" y="0">t</tspan><tspan x="27.9" y="0">:</tspan><tspan class="au" x="30.28" y="0" xml:space="preserve"> H</tspan><tspan class="av" x="37.57" y="0">o</tspan><tspan class="au" x="41.64" y="0">w </tspan><tspan class="aw" x="49.22" y="0">f</tspan><tspan class="au" x="51.41" y="0">ar does a t</tspan><tspan class="ax" x="85.93" y="0">r</tspan><tspan class="au" x="88.5" y="0">ain wi</tspan><tspan class="ay" x="107.6" y="0">t</tspan><tspan class="az" x="109.66" y="0">h speed 60 </tspan><tspan class="ba" x="147.59" y="0">m</tspan><tspan class="au" x="153.22" y="0">pg t</tspan><tspan class="ax" x="165.68" y="0">r</tspan><tspan class="bb" x="168.25" y="0">a</tspan><tspan class="bc" x="172.51" y="0">v</tspan><tspan class="au" x="175.91" y="0">el in 3.5 hours? </tspan></text></svg>